<?xml version="1.0" encoding="utf-8"?>
<!-- Generator: Adobe Illustrator 22.1.0, SVG Export Plug-In . SVG Version: 6.00 Build 0)  -->
<svg version="1.1" id="レイヤー_1" xmlns="http://www.w3.org/2000/svg" xmlns:xlink="http://www.w3.org/1999/xlink" x="0px"
	 y="0px" viewBox="0 0 600 174" style="enable-background:new 0 0 600 174;" xml:space="preserve">
<style type="text/css">
	.st0{fill:#FFFFFF;}
</style>
<path class="st0" d="M180.5,67.3h-12.6l-0.1,0.2L145,122.3h12.8l4.9-11.8l0,0h23l4.9,11.8h12.8L180.5,67.3z M181.6,100.7h-14.9
	l7.4-17.9L181.6,100.7L181.6,100.7z M262.7,67.3v51v4h-11.8L224.3,87v35.3h-11.8v-55h11.8l26.6,35.3V67.3H262.7z M529,100.7v21.6
	h-11.8v-2.9v-18.7l-0.9-1.4l-20.2-32h13.5l13.4,21.3l13.4-21.3H550L529,100.7z M50,51.7l14.6,0l21.9,52.9L93.9,87L79.2,51.7l14.6,0
	l7.3,17.6l7.3-17.6l14.6,0L108.5,87l7.3,17.6l21.9-52.9l14.6,0l-29.2,70.6h-14.6l-7.3-17.6l-7.3,17.6H79.2L50,51.7z M416.1,67.3
	h-22.7v11.8h0v43.2h11.8v0l0,0h10.9c15.2,0,27.5-12.3,27.5-27.5C443.6,79.6,431.3,67.3,416.1,67.3z M416.1,110.5L416.1,110.5
	l-10.9,0V79.1h10.9v0c8.7,0,15.7,7,15.7,15.7C431.8,103.5,424.8,110.5,416.1,110.5z M319.4,79.1h-15.8v43.2h-11.8V79.1H276V67.3
	h43.4V79.1z M344.6,79.1v9.8h28.7v11.8h-28.7v9.8h31.6v11.8h-43.4V79.1v0V67.3h43.4v11.8H344.6z M500.3,110.5v11.8h-43.4v-11.8V67.3
	h11.8v43.2H500.3z"/>
</svg>
